<svg xmlns="http://www.w3.org/2000/svg" width="612.001" height="612.001"><path d="M40.121 105.553c-11.42-34.613 7.447-72.068 42.064-83.49s72.07 7.451 83.49 42.064l129.897 393.695c-12.105-3.196-24.979-3.781-37.831-1.431L131.984 75.244c-5.292-16.04-22.643-24.781-38.682-19.489-16.04 5.292-24.781 22.643-19.489 38.682 3.069 9.303-1.984 19.335-11.288 22.404-9.303 3.069-19.334-1.985-22.404-11.288zm511.792 308.84l-212.828 70.222a86.927 86.927 0 0117.342 30.288c.135.411.211.826.34 1.238l206.263-68.056c9.303-3.069 14.357-13.101 11.288-22.403-3.07-9.305-13.103-14.359-22.405-11.289zM339.582 520.465c12.059 36.547-7.794 75.949-44.34 88.008-36.547 12.059-75.949-7.793-88.008-44.34-12.059-36.548 7.794-75.949 44.34-88.008 36.547-12.06 75.95 7.793 88.008 44.34zm-33.087 10.916c-6.029-18.273-25.729-28.198-44.004-22.169-18.273 6.028-28.199 25.73-22.17 44.003s25.73 28.199 44.004 22.171c18.273-6.03 28.199-25.732 22.17-44.005zm191.632-384.036l72.256 218.997a8.87 8.87 0 01-5.644 11.202l-227.42 75.035a8.868 8.868 0 01-11.201-5.644l-72.256-218.997a8.87 8.87 0 015.644-11.202L486.925 141.7a8.872 8.872 0 0111.202 5.645zm-30.083 127.214l-77.438-42.605-36.864 80.319 24.407 11.233 15.939-34.747 28.781 87.232 27.545-9.088-28.777-87.219 33.477 18.427 12.93-23.552zm-67.572-130.651L354.276 3.896a5.67 5.67 0 00-7.162-3.608l-39.611 13.069-.194.356-.332-.182-20.899 6.896 17.21 52.159-23.573 7.778-17.209-52.159-20.906 6.898-.158.344-.37-.17-39.354 12.985a5.67 5.67 0 00-3.608 7.162l46.197 140.013a5.67 5.67 0 007.162 3.608l145.398-47.974a5.672 5.672 0 003.605-7.163z"/></svg>