<?xml version="1.0" encoding="iso-8859-1"?>
<!-- Generator: Adobe Illustrator 18.1.1, SVG Export Plug-In . SVG Version: 6.00 Build 0)  -->
<svg version="1.1" id="Capa_1" xmlns="http://www.w3.org/2000/svg" xmlns:xlink="http://www.w3.org/1999/xlink" x="0px" y="0px"
	 viewBox="0 0 46.27 46.27" style="enable-background:new 0 0 46.27 46.27;" xml:space="preserve">
<g>
	<g>
		<path style="fill:#010002;" d="M14.587,38.673c2.003,2.441,4.842,3.841,7.788,3.841c2.824,0,5.496-1.239,7.522-3.488
			l12.507-13.888c1.8-2.167,3.866-5.144,3.866-8.97c0-6.844-5.567-12.411-12.41-12.411c-2.902,0-5.724,1.024-7.946,2.883
			c-1.413,1.183-2.218,1.665-2.778,1.665c-0.56,0-1.365-0.482-2.78-1.665c-2.222-1.859-5.044-2.883-7.946-2.883
			C5.567,3.757,0,9.324,0,16.168c0,3.869,1.836,6.796,3.473,8.962L14.587,38.673z M12.41,6.757c2.199,0,4.337,0.775,6.021,2.184
			c1.79,1.498,3.134,2.364,4.705,2.364c1.57,0,2.914-0.866,4.704-2.364c1.684-1.408,3.822-2.184,6.021-2.184
			c5.189,0,9.41,4.222,9.41,9.411c0,2.849-1.604,5.163-3.135,7.007L27.668,37.018c-1.45,1.609-3.329,2.496-5.292,2.496
			c-2.075,0-4.017-0.975-5.469-2.743L5.83,23.275C4.512,21.531,3,19.146,3,16.169C3,10.979,7.221,6.757,12.41,6.757z"/>
	</g>
</g>
<g>
</g>
<g>
</g>
<g>
</g>
<g>
</g>
<g>
</g>
<g>
</g>
<g>
</g>
<g>
</g>
<g>
</g>
<g>
</g>
<g>
</g>
<g>
</g>
<g>
</g>
<g>
</g>
<g>
</g>
</svg>
