<svg xmlns="http://www.w3.org/2000/svg" width="366" height="366" viewBox="0 0 366 366">
  <metadata><?xpacket begin="﻿" id="W5M0MpCehiHzreSzNTczkc9d"?>
<x:xmpmeta xmlns:x="adobe:ns:meta/" x:xmptk="Adobe XMP Core 5.6-c142 79.160924, 2017/07/13-01:06:39        ">
   <rdf:RDF xmlns:rdf="http://www.w3.org/1999/02/22-rdf-syntax-ns#">
      <rdf:Description rdf:about=""/>
   </rdf:RDF>
</x:xmpmeta>
                                                                                                    
                                                                                                    
                                                                                                    
                                                                                                    
                                                                                                    
                                                                                                    
                                                                                                    
                                                                                                    
                                                                                                    
                                                                                                    
                                                                                                    
                                                                                                    
                                                                                                    
                                                                                                    
                                                                                                    
                                                                                                    
                                                                                                    
                                                                                                    
                                                                                                    
                                                                                                    
                           
<?xpacket end="w"?></metadata>
<defs>
    <style>
      .cls-1 {
        fill: #f1edea;
        fill-rule: evenodd;
        opacity: 0.3;
      }
    </style>
  </defs>
  <path id="Exclamation_Mark_Inside_An_Octahedron._Attribute_as_Elegant_Themes_from_Flaticon.com" data-name="Exclamation Mark Inside An Octahedron. Attribute as Elegant Themes from Flaticon.com" class="cls-1" d="M269.519,334.7A22.918,22.918,0,0,0,253.3,328H120.688a22.817,22.817,0,0,0-16.175,6.7l-93.79,93.811A22.715,22.715,0,0,0,4,444.688V577.347a22.85,22.85,0,0,0,6.7,16.172l93.79,93.8a22.986,22.986,0,0,0,16.2,6.68H253.347a22.9,22.9,0,0,0,16.172-6.7L363.3,593.476A22.79,22.79,0,0,0,370,577.3V444.688a22.863,22.863,0,0,0-6.7-16.175Zm77.606,242.6L253.3,671.125H120.688L26.875,577.3V444.688l93.813-93.813H253.347l93.778,93.813V577.3ZM187,396.625A22.89,22.89,0,0,0,164.125,419.5V533.875a22.875,22.875,0,0,0,45.75,0V419.5A22.89,22.89,0,0,0,187,396.625ZM164.125,602.5A22.875,22.875,0,1,0,187,579.625,22.87,22.87,0,0,0,164.125,602.5Z" transform="translate(-4 -328)"/>
</svg>
