<svg xmlns="http://www.w3.org/2000/svg" width="366" height="366"><path data-name="Exclamation Mark Inside An Octahedron. Attribute as Elegant Themes from Flaticon.com" d="M265.519 6.7A22.918 22.918 0 00249.3 0H116.688a22.817 22.817 0 00-16.175 6.7l-93.79 93.811A22.715 22.715 0 000 116.688v132.659a22.85 22.85 0 006.7 16.172l93.79 93.8a22.986 22.986 0 0016.2 6.68h132.657a22.9 22.9 0 0016.172-6.7l93.781-93.823A22.79 22.79 0 00366 249.3V116.688a22.863 22.863 0 00-6.7-16.175zm77.606 242.6L249.3 343.125H116.688L22.875 249.3V116.688l93.813-93.813h132.659l93.778 93.813V249.3zM183 68.625A22.89 22.89 0 00160.125 91.5v114.375a22.875 22.875 0 0045.75 0V91.5A22.89 22.89 0 00183 68.625zM160.125 274.5A22.875 22.875 0 10183 251.625a22.87 22.87 0 00-22.875 22.875z" fill="#f1edea" fill-rule="evenodd" opacity=".3"/></svg>