<svg xmlns="http://www.w3.org/2000/svg" viewBox="0 0 46.27 46.27"><path d="M14.587 38.673c2.003 2.441 4.842 3.841 7.788 3.841 2.824 0 5.496-1.239 7.522-3.488l12.507-13.888c1.8-2.167 3.866-5.144 3.866-8.97 0-6.844-5.567-12.411-12.41-12.411a12.403 12.403 0 00-7.946 2.883c-1.413 1.183-2.218 1.665-2.778 1.665s-1.365-.482-2.78-1.665a12.403 12.403 0 00-7.946-2.883C5.567 3.757 0 9.324 0 16.168c0 3.869 1.836 6.796 3.473 8.962l11.114 13.543zM12.41 6.757c2.199 0 4.337.775 6.021 2.184 1.79 1.498 3.134 2.364 4.705 2.364 1.57 0 2.914-.866 4.704-2.364a9.402 9.402 0 016.021-2.184c5.189 0 9.41 4.222 9.41 9.411 0 2.849-1.604 5.163-3.135 7.007L27.668 37.018c-1.45 1.609-3.329 2.496-5.292 2.496-2.075 0-4.017-.975-5.469-2.743L5.83 23.275C4.512 21.531 3 19.146 3 16.169c0-5.19 4.221-9.412 9.41-9.412z" fill="#010002"/></svg>