<svg xmlns="http://www.w3.org/2000/svg" viewBox="0 0 57.106 57.106"><path d="M56.856 16.554c-.304-.342-7.533-8.369-15.602-8.65-4.262-.146-7.145.713-8.891 1.531-.476-1.231-2.297-4.765-8.264-7.795C21.955.552 19.325 0 16.278 0 11.051 0 6.457 1.601 6.263 1.668a.473.473 0 00-.044.872c.285.134 7.006 3.276 10.018 3.276.179 0 .345-.011.496-.032.93-.134 1.81-.32 2.566-.509l-1.03.801a.474.474 0 00.083.797l2.32 1.133c-.73-.066-1.48-.105-2.246-.118l-.221-.002c-9.066 0-17.58 8.546-17.938 8.91a.472.472 0 00-.099.517c.076.175.231.301.441.285.397-.006 9.737-.163 12.322-1.919a30.37 30.37 0 002.6-1.994l-.79 1.607a.471.471 0 00.424.68h4.81a.469.469 0 00.401-.225l.602-.977-.059.538a.473.473 0 00.352.508c.066.017 1.623.409 3.746.409l.046-.001c-3.263 1.816-6.128 4.436-8.636 7.461l-.019.009.004.008c-3.755 4.534-6.703 9.989-8.924 15.102a.646.646 0 01-.029.021l.013.017c-3.694 8.512-5.394 16.043-5.536 16.684a.475.475 0 00.239.518c1.32.703 2.785 1.062 4.355 1.062 2.652 0 4.668-1.015 4.754-1.058a.473.473 0 00.257-.41c.434-21.033 15.324-37.662 17.164-39.636 1.49 3.802 4.729 6.251 4.873 6.358.188.14.451.121.617-.046l.381-.383-.381 1.082a.471.471 0 00.077.454l3.021 3.737a.473.473 0 00.795-.099l.756-1.625c-.026.951-.018 2.089.082 3.277.258 3.112 6.007 10.478 6.251 10.789a.474.474 0 00.841-.237c.059-.515 1.374-12.698-4.484-19.721-1.535-1.839-3.148-3.36-4.814-4.541 1.006-.054 1.66-.185 1.695-.192a.473.473 0 00.377-.489l-.014-.224.364.664a.47.47 0 00.39.245l4.223.214h.033a.472.472 0 00.391-.738l-.48-1.121a26.365 26.365 0 002.002 1.688c2.207 1.667 10.424 2.222 10.771 2.244a.48.48 0 00.455-.264.472.472 0 00-.071-.52zM12.559 31.011c1.337-2.276 2.825-4.478 4.466-6.497.293-.114.978-.319 1.615-.043.577.25 1.007.859 1.292 1.785a73.781 73.781 0 00-3.375 6.173c-1.123-1.259-2.734-1.52-3.998-1.418zm-.636 1.109c.789-.176 2.955-.454 4.155 1.323a64.966 64.966 0 00-2.268 5.508c-1.898-1.401-3.702-1.243-4.899-.845a77.244 77.244 0 013.012-5.986zM5.269 47.41c.839-.386 3.901-1.593 6.225-.049a50.791 50.791 0 00-.583 3.786c-2.848-1.008-5.465-.487-6.802-.072.321-1.084.708-2.32 1.16-3.665zm.43-1.254a100.725 100.725 0 012.615-6.702c.697-.425 2.824-1.41 5.145.492a56.569 56.569 0 00-1.756 6.363c-2.143-1.205-4.604-.653-6.004-.153zm.834 10.003a8.292 8.292 0 01-3.589-.787c.126-.527.4-1.625.823-3.118.725-.288 3.773-1.328 7.036-.076a47.64 47.64 0 00-.196 3.142c-.592.252-2.169.839-4.074.839zm14.062-30.971c-.377-.795-.896-1.348-1.558-1.634a2.705 2.705 0 00-1.024-.215c2.691-3.066 5.771-5.612 9.269-7.166-1.336 1.518-3.932 4.66-6.687 9.015zM46.27 14.341c-2.054-1.552-3.623-3.341-3.639-3.358a.472.472 0 00-.789.496l1.205 2.805-3.202-.162-1.242-2.268a.472.472 0 00-.885.252l.106 1.888c-.52.072-1.496.171-2.666.115a.472.472 0 00-.263.878c2.048 1.208 4.038 2.958 5.912 5.205 4.551 5.455 4.536 14.522 4.362 17.79-1.902-2.55-5.133-7.259-5.303-9.305-.244-2.922.084-5.614.086-5.641a.473.473 0 00-.897-.258l-1.505 3.24-2.38-2.944.99-2.805a.473.473 0 00-.192-.558.474.474 0 00-.585.066l-1.561 1.564c-.888-.749-3.408-3.083-4.449-6.266a.468.468 0 00-.58-.306c-.287.083-.603.158-.989.236a.515.515 0 00-.173.074.44.44 0 00-.177-.003 14.55 14.55 0 01-2.44.199c-1.39 0-2.538-.182-3.114-.294l.236-2.193a.471.471 0 00-.871-.298l-1.558 2.532h-3.785l1.575-3.208a.47.47 0 00-.152-.593.473.473 0 00-.611.058 31.048 31.048 0 01-4.332 3.614c-1.699 1.153-7.394 1.6-10.572 1.722 2.409-2.168 9.337-7.79 16.374-7.79l.205.002c1.896.03 3.684.232 5.315.602a.471.471 0 00.429-.802l1.009-1.602a.474.474 0 00-.652-.651l-2.184 1.384-2.881-1.407 2.411-1.873a.472.472 0 00-.451-.817c-.022.009-2.261.816-4.808 1.182a2.42 2.42 0 01-.362.022c-2.103 0-6.425-1.775-8.481-2.676 1.69-.476 4.989-1.253 8.521-1.253 2.898 0 5.385.518 7.394 1.538 6.787 3.446 7.914 7.585 7.923 7.625a.95.95 0 00.039.109l.025.062a.473.473 0 00.653.235c1.572-.826 4.438-1.823 8.907-1.667 6.117.214 11.938 5.35 14.07 7.451-2.799-.25-7.612-.887-9.016-1.948z" fill="#010002"/></svg>